<?xml version="1.0" encoding="UTF-8"?>
<svg version="1.1" xmlns="http://www.w3.org/2000/svg" width="64" height="64">
<path d="M0 0 C3 1.8125 3 1.8125 5 5 C5.40078315 8.70594289 5.29246649 12.28892521 5 16 C6.32 16 7.64 16 9 16 C9 17.32 9 18.64 9 20 C9.804375 20.144375 10.60875 20.28875 11.4375 20.4375 C14 21 14 21 15 22 C15.04080783 23.99958364 15.04254356 26.00045254 15 28 C17.64 28 20.28 28 23 28 C23 33.28 23 38.56 23 44 C20.36 44 17.72 44 15 44 C15.04125 44.94875 15.0825 45.8975 15.125 46.875 C15 50 15 50 13 52 C10.44249547 52.1995697 7.99561859 52.27986826 5.4375 52.265625 C4.31686157 52.26849518 4.31686157 52.26849518 3.17358398 52.27142334 C1.59325829 52.27278498 0.01292142 52.26909 -1.56738281 52.26074219 C-3.99048922 52.250042 -6.41285423 52.26063779 -8.8359375 52.2734375 C-10.36979331 52.2721159 -11.90364865 52.2695535 -13.4375 52.265625 C-14.16461182 52.26967346 -14.89172363 52.27372192 -15.64086914 52.27789307 C-20.77007639 52.22992361 -20.77007639 52.22992361 -23 50 C-23.25878906 47.234375 -23.25878906 47.234375 -23.265625 43.75 C-23.26820312 42.5021875 -23.27078125 41.254375 -23.2734375 39.96875 C-23.26570313 38.6590625 -23.25796875 37.349375 -23.25 36 C-23.25773437 34.6903125 -23.26546875 33.380625 -23.2734375 32.03125 C-23.27085938 30.7834375 -23.26828125 29.535625 -23.265625 28.25 C-23.26336914 27.10015625 -23.26111328 25.9503125 -23.25878906 24.765625 C-23 22 -23 22 -21 20 C-19.68 20 -18.36 20 -17 20 C-17 18.68 -17 17.36 -17 16 C-15.68 16 -14.36 16 -13 16 C-13.08701172 14.89591797 -13.08701172 14.89591797 -13.17578125 13.76953125 C-13.54135107 5.86277827 -13.54135107 5.86277827 -11 1.8125 C-7.1456129 -0.5161922 -4.38701499 -1.05252981 0 0 Z M-8.8125 4.3125 C-11.42998431 8.03208297 -11.08268581 11.61765212 -11 16 C-9.68 16 -8.36 16 -7 16 C-7 17.32 -7 18.64 -7 20 C-5.02 20 -3.04 20 -1 20 C-1 18.68 -1 17.36 -1 16 C0.32 16 1.64 16 3 16 C3.29543354 10.97762985 3.00679573 8.0892422 0 4 C-1.10528442 2.68031822 -1.10528442 2.68031822 -3.875 2.75 C-6.94858863 2.72329268 -6.94858863 2.72329268 -8.8125 4.3125 Z M-15 18 C-15 18.66 -15 19.32 -15 20 C-13.02 20 -11.04 20 -9 20 C-9 19.34 -9 18.68 -9 18 C-10.98 18 -12.96 18 -15 18 Z M1 18 C1 18.66 1 19.32 1 20 C2.98 20 4.96 20 7 20 C7 19.34 7 18.68 7 18 C5.02 18 3.04 18 1 18 Z M-19.89672852 23.27050781 C-21.35853796 25.22014091 -21.35853796 25.22014091 -21 29 C-19.68 29 -18.36 29 -17 29 C-17 29.66 -17 30.32 -17 31 C-18.32 31 -19.64 31 -21 31 C-21 31.66 -21 32.32 -21 33 C-19.68 33 -18.36 33 -17 33 C-17 33.66 -17 34.32 -17 35 C-18.32 35 -19.64 35 -21 35 C-21 35.66 -21 36.32 -21 37 C-19.68 37 -18.36 37 -17 37 C-17 37.66 -17 38.32 -17 39 C-18.32 39 -19.64 39 -21 39 C-21 39.66 -21 40.32 -21 41 C-19.68 41 -18.36 41 -17 41 C-17 41.66 -17 42.32 -17 43 C-18.32 43 -19.64 43 -21 43 C-20.65772428 45.97065509 -20.65772428 45.97065509 -20 49 C-17.04335481 50.4783226 -14.25770263 50.06032783 -11 50 C-11 49.34 -11 48.68 -11 48 C-6.38 48 -1.76 48 3 48 C3 48.66 3 49.32 3 50 C7.72324914 50.42641875 7.72324914 50.42641875 11.9375 48.6875 C13.26640663 46.90923892 13.26640663 46.90923892 13 44 C5.74 44 -1.52 44 -9 44 C-9 38.72 -9 33.44 -9 28 C-1.74 28 5.52 28 13 28 C12.505 25.525 12.505 25.525 12 23 C7.42786761 20.71393381 1.08233247 21.76983144 -3.9375 21.75 C-5.88946289 21.7190625 -5.88946289 21.7190625 -7.88085938 21.6875 C-9.12544922 21.68234375 -10.37003906 21.6771875 -11.65234375 21.671875 C-12.79695068 21.6625293 -13.94155762 21.65318359 -15.12084961 21.64355469 C-17.97588074 21.7776564 -17.97588074 21.7776564 -19.89672852 23.27050781 Z M-7 31 C-7.09823937 32.66429051 -7.12973631 34.33281931 -7.125 36 C-7.12757812 36.9075 -7.13015625 37.815 -7.1328125 38.75 C-7.25173779 40.96966611 -7.25173779 40.96966611 -6 42 C-4.08541718 42.09971786 -2.16717683 42.13080589 -0.25 42.1328125 C1.49796875 42.13474609 1.49796875 42.13474609 3.28125 42.13671875 C5.12203125 42.13091797 5.12203125 42.13091797 7 42.125 C8.2271875 42.12886719 9.454375 42.13273437 10.71875 42.13671875 C11.8840625 42.13542969 13.049375 42.13414063 14.25 42.1328125 C15.32765625 42.13168457 16.4053125 42.13055664 17.515625 42.12939453 C19.94219997 42.28092371 19.94219997 42.28092371 21 41 C21.09823937 39.33570949 21.12973631 37.66718069 21.125 36 C21.12757812 35.0925 21.13015625 34.185 21.1328125 33.25 C21.25173779 31.03033389 21.25173779 31.03033389 20 30 C18.08541718 29.90028214 16.16717683 29.86919411 14.25 29.8671875 C12.50203125 29.86525391 12.50203125 29.86525391 10.71875 29.86328125 C8.87796875 29.86908203 8.87796875 29.86908203 7 29.875 C5.7728125 29.87113281 4.545625 29.86726563 3.28125 29.86328125 C2.1159375 29.86457031 0.950625 29.86585937 -0.25 29.8671875 C-1.32765625 29.86831543 -2.4053125 29.86944336 -3.515625 29.87060547 C-5.94219997 29.71907629 -5.94219997 29.71907629 -7 31 Z " fill="#7D41FF" transform="translate(32,6)"/>
<path d="M0 0 C1.32 0 2.64 0 4 0 C4 1.32 4 2.64 4 4 C2.68 4 1.36 4 0 4 C0 2.68 0 1.36 0 0 Z " fill="#A9B8FF" transform="translate(46,40)"/>
<path d="M0 0 C1.32 0 2.64 0 4 0 C4 1.32 4 2.64 4 4 C2.68 4 1.36 4 0 4 C0 2.68 0 1.36 0 0 Z " fill="#A9B8FF" transform="translate(40,40)"/>
<path d="M0 0 C1.32 0 2.64 0 4 0 C4 1.32 4 2.64 4 4 C2.68 4 1.36 4 0 4 C0 2.68 0 1.36 0 0 Z " fill="#A9B8FF" transform="translate(34,40)"/>
<path d="M0 0 C1.32 0 2.64 0 4 0 C4 1.32 4 2.64 4 4 C2.68 4 1.36 4 0 4 C0 2.68 0 1.36 0 0 Z " fill="#A9B8FF" transform="translate(28,40)"/>
</svg>
